{
	"asset": {
		"generator": "Tilt Brush 16.3.cb9b4e8",
		"version": "1.1",
		"copyright": "Unknown."
	},
	"buffers": {
		"sketch": {
			"byteLength": 35056,
			"type": "arraybuffer",
			"uri": "sketch.bin"
		}
	},
	"accessors": {
		"accessor_position_OilPaint_f72ec0e7-a844-4e38-82e3-140c44772699_0_0": {
			"bufferView": "vec3BufferView",
			"byteOffset": 0,
			"byteStride": 12,
			"componentType": 5126,
			"count": 502,
			"max": [ 0.3848197, 1.747231, 0.8733878 ],
			"min": [ -0.9452193, 1.357872, -0.3568404 ],
			"type": "VEC3"
		 },
		"accessor_normal_OilPaint_f72ec0e7-a844-4e38-82e3-140c44772699_0_0": {
			"bufferView": "vec3BufferView",
			"byteOffset": 6024,
			"byteStride": 12,
			"componentType": 5126,
			"count": 502,
			"max": [ 0.973416, 0.9988678, 0.9997135 ],
			"min": [ -0.9983307, -0.944805, -0.7835472 ],
			"type": "VEC3"
		 },
		"accessor_color_OilPaint_f72ec0e7-a844-4e38-82e3-140c44772699_0_0": {
			"bufferView": "vec4BufferView",
			"byteOffset": 0,
			"byteStride": 16,
			"componentType": 5126,
			"count": 502,
			"max": [ 0.7215686, 0.07058824, 0.1882353, 1 ],
			"min": [ 0.7215686, 0.07058824, 0.1882353, 1 ],
			"type": "VEC4"
		 },
		"accessor_tangent_OilPaint_f72ec0e7-a844-4e38-82e3-140c44772699_0_0": {
			"bufferView": "vec4BufferView",
			"byteOffset": 8032,
			"byteStride": 16,
			"componentType": 5126,
			"count": 502,
			"max": [ 0.9988669, 0.7819952, 0.9984102, 1 ],
			"min": [ -0.9997205, -0.7585632, -0.9749591, 1 ],
			"type": "VEC4"
		 },
		"accessor_uv0_OilPaint_f72ec0e7-a844-4e38-82e3-140c44772699_0_0": {
			"bufferView": "vec2BufferView",
			"byteOffset": 0,
			"byteStride": 8,
			"componentType": 5126,
			"count": 502,
			"max": [ 1, 1 ],
			"min": [ 0, 0.25 ],
			"type": "VEC2"
		 },
		"accessor_indices_0_OilPaint_f72ec0e7-a844-4e38-82e3-140c44772699_0_0": {
			"bufferView": "ushortBufferView",
			"byteOffset": 0,
			"byteStride": 0,
			"componentType": 5123,
			"count": 1464,
			"max": [ 501 ],
			"min": [ 0 ],
			"type": "SCALAR"
		 }
	},
	"bufferViews": {
		"ushortBufferView": {
			"buffer": "sketch",
			"byteLength": 2928,
			"byteOffset": 0,
			"target": 34963
		},
		"vec2BufferView": {
			"buffer": "sketch",
			"byteLength": 4016,
			"byteOffset": 2928,
			"target": 34962
		},
		"vec3BufferView": {
			"buffer": "sketch",
			"byteLength": 12048,
			"byteOffset": 6944,
			"target": 34962
		},
		"vec4BufferView": {
			"buffer": "sketch",
			"byteLength": 16064,
			"byteOffset": 18992,
			"target": 34962
		}
	},
	"meshes": {
		"mesh_OilPaint_f72ec0e7-a844-4e38-82e3-140c44772699_0_0": {
			"name": "mesh_OilPaint_f72ec0e7-a844-4e38-82e3-140c44772699_0_0",
			"primitives": [
				{
					"attributes": {
						"POSITION": "accessor_position_OilPaint_f72ec0e7-a844-4e38-82e3-140c44772699_0_0",
						"NORMAL": "accessor_normal_OilPaint_f72ec0e7-a844-4e38-82e3-140c44772699_0_0",
						"COLOR": "accessor_color_OilPaint_f72ec0e7-a844-4e38-82e3-140c44772699_0_0",
						"TANGENT": "accessor_tangent_OilPaint_f72ec0e7-a844-4e38-82e3-140c44772699_0_0",
						"TEXCOORD_0": "accessor_uv0_OilPaint_f72ec0e7-a844-4e38-82e3-140c44772699_0_0"
					},
					"indices": "accessor_indices_0_OilPaint_f72ec0e7-a844-4e38-82e3-140c44772699_0_0",
					"material": "material_f72ec0e7-a844-4e38-82e3-140c44772699",
					"mode": 4
				}
			]
		}
	},
	"shaders": {
		"vertex_f72ec0e7-a844-4e38-82e3-140c44772699": {
			"type": 35633,
			"uri": "https://www.tiltbrush.com/shaders/brushes/OilPaint-f72ec0e7-a844-4e38-82e3-140c44772699/OilPaint-f72ec0e7-a844-4e38-82e3-140c44772699-v10.0-vertex.glsl"
		},
		"fragment_f72ec0e7-a844-4e38-82e3-140c44772699": {
			"type": 35632,
			"uri": "https://www.tiltbrush.com/shaders/brushes/OilPaint-f72ec0e7-a844-4e38-82e3-140c44772699/OilPaint-f72ec0e7-a844-4e38-82e3-140c44772699-v10.0-fragment.glsl"
		}
	},
	"programs": {
		"program_f72ec0e7-a844-4e38-82e3-140c44772699": {
			"attributes": [
				"a_position",
				"a_normal",
				"a_color",
				"a_tangent",
				"a_texcoord0"				
			],
			"vertexShader": "vertex_f72ec0e7-a844-4e38-82e3-140c44772699",
			"fragmentShader": "fragment_f72ec0e7-a844-4e38-82e3-140c44772699"
		}
	},
	"techniques": {
		"technique_f72ec0e7-a844-4e38-82e3-140c44772699": {
			"program": "program_f72ec0e7-a844-4e38-82e3-140c44772699",
			"parameters": {
				"position": {
					"type": 35665,
					"semantic": "POSITION"
				},
				"normal": {
					"type": 35665,
					"semantic": "NORMAL"
				},
				"color": {
					"type": 35666,
					"semantic": "COLOR"
				},
				"tangent": {
					"type": 35666,
					"semantic": "TANGENT"
				},
				"texcoord0": {
					"type": 35664,
					"semantic": "TEXCOORD_0"
				},
				"modelViewMatrix": {
					"type": 35676,
					"semantic": "MODELVIEW"
				},
				"projectionMatrix": {
					"type": 35676,
					"semantic": "PROJECTION"
				},
				"normalMatrix": {
					"type": 35675,
					"semantic": "MODELVIEWINVERSETRANSPOSE"
				},
				"SceneLight_0_matrix": {
					"type": 35676,
					"semantic": "MODELVIEW",
					"node": "node_SceneLight_0_-1038"
				},
				"SceneLight_0_color": {
					"type": 35666,
					"node": "node_SceneLight_0_-1038"
				},
				"SceneLight_1_matrix": {
					"type": 35676,
					"semantic": "MODELVIEW",
					"node": "node_SceneLight_1_-1044"
				},
				"SceneLight_1_color": {
					"type": 35666,
					"node": "node_SceneLight_1_-1044"
				},
				"ambient_light_color": {
					"type": 35666
				},
				"Shininess": {
					"type": 5126
				},
				"Cutoff": {
					"type": 5126
				},
				"Color": {
					"type": 35666
				},
				"SpecColor": {
					"type": 35666
				},
				"MainTex_TexelSize": {
					"type": 35666
				},
				"BumpMap_TexelSize": {
					"type": 35666
				},
				"MainTex": {
					"type": 35678
				},
				"BumpMap": {
					"type": 35678
				}				
			},
			"attributes": {
				"a_position": "position",
				"a_normal": "normal",
				"a_color": "color",
				"a_tangent": "tangent",
				"a_texcoord0": "texcoord0"				
			},
			"uniforms": {
				"u_modelViewMatrix": "modelViewMatrix",
				"u_projectionMatrix": "projectionMatrix",
				"u_normalMatrix": "normalMatrix",
				"u_SceneLight_0_matrix": "SceneLight_0_matrix",
				"u_SceneLight_0_color": "SceneLight_0_color",
				"u_SceneLight_1_matrix": "SceneLight_1_matrix",
				"u_SceneLight_1_color": "SceneLight_1_color",
				"u_ambient_light_color": "ambient_light_color",
				"u_Shininess": "Shininess",
				"u_Cutoff": "Cutoff",
				"u_Color": "Color",
				"u_SpecColor": "SpecColor",
				"u_MainTex_TexelSize": "MainTex_TexelSize",
				"u_BumpMap_TexelSize": "BumpMap_TexelSize",
				"u_MainTex": "MainTex",
				"u_BumpMap": "BumpMap"				
			},
			"states": {
				"enable": [
					2929
				],
				"functions": {
					"depthMask": [true]
				}
			}
		}
	},
	"samplers": {
		"sampler_LINEAR_LINEAR_REPEAT": {
			"magFilter": 9729,
			"minFilter": 9987,
			"wrapS": 10497,
			"wrapT": 10497
		}
	},
	"textures": {
		"texture_f72ec0e7-a844-4e38-82e3-140c44772699_MainTex": {
			"format": 6408,
			"internalFormat": 6408,
			"sampler": "sampler_LINEAR_LINEAR_REPEAT",
			"source": "image_f72ec0e7-a844-4e38-82e3-140c44772699_MainTex",
			"target": 3553,
			"type": 5121
		},
		"texture_f72ec0e7-a844-4e38-82e3-140c44772699_BumpMap": {
			"format": 6408,
			"internalFormat": 6408,
			"sampler": "sampler_LINEAR_LINEAR_REPEAT",
			"source": "image_f72ec0e7-a844-4e38-82e3-140c44772699_BumpMap",
			"target": 3553,
			"type": 5121
		}
	},
	"images": {
		"image_f72ec0e7-a844-4e38-82e3-140c44772699_MainTex": {
			"uri": "https://www.tiltbrush.com/shaders/brushes/OilPaint-f72ec0e7-a844-4e38-82e3-140c44772699/OilPaint-f72ec0e7-a844-4e38-82e3-140c44772699-v10.0-MainTex.png"
		},
		"image_f72ec0e7-a844-4e38-82e3-140c44772699_BumpMap": {
			"uri": "https://www.tiltbrush.com/shaders/brushes/OilPaint-f72ec0e7-a844-4e38-82e3-140c44772699/OilPaint-f72ec0e7-a844-4e38-82e3-140c44772699-v10.0-BumpMap.png"
		}
	},
	"materials": {
		"material_f72ec0e7-a844-4e38-82e3-140c44772699": {
			"technique": "technique_f72ec0e7-a844-4e38-82e3-140c44772699",
			"values": {
				"SceneLight_0_color": [0.7780392, 0.8156863, 0.9913726, 1],
				"SceneLight_1_color": [0.4282353, 0.4211765, 0.3458824, 1],
				"ambient_light_color": [0.3921569, 0.3921569, 0.3921569, 1],
				"Shininess": 0.4,
				"Cutoff": 0.5,
				"Color": [1, 1, 1, 1],
				"SpecColor": [0.2352941, 0.2352941, 0.2352941, 1],
				"MainTex_TexelSize": [0.001953125, 0.001953125, 512, 512],
				"BumpMap_TexelSize": [0.001953125, 0.001953125, 512, 512],
				"MainTex": "texture_f72ec0e7-a844-4e38-82e3-140c44772699_MainTex",
				"BumpMap": "texture_f72ec0e7-a844-4e38-82e3-140c44772699_BumpMap"				
			},
			"name": "material_f72ec0e7-a844-4e38-82e3-140c44772699"
		}
	},
	"nodes": {
		"node_OilPaint_f72ec0e7-a844-4e38-82e3-140c44772699_0_0": {
			"name": "node_OilPaint_f72ec0e7-a844-4e38-82e3-140c44772699_0_0",
			"meshes": [
				"mesh_OilPaint_f72ec0e7-a844-4e38-82e3-140c44772699_0_0"
			],
			"matrix": [1, 0, 0, 0, 0, 1, 0, 0, 0, 0, 1, 0, 0, 0, 0, 1]
		},
		"node_SceneLight_0_-1038": {
			"name": "node_SceneLight_0_-1038",
			"light": "SceneLight_0",
			"matrix": [0.898794, 0.2191856, -0.3796406, 0, -0.4383712, 0.449397, -0.7783785, 0, -1.490116E-08, 0.8660254, 0.4999999, 0, 0.7329063, -0.475217, 0.1193, 1]
		},
		"node_SceneLight_1_-1044": {
			"name": "node_SceneLight_1_-1044",
			"light": "SceneLight_1",
			"matrix": [0.7660444, -0.4924039, -0.4131759, 0, -0.6427876, -0.5868242, -0.4924039, 0, 8.940697E-08, 0.6427876, -0.7660446, 0, 0.7329062, -0.4975198, -0.007185883, 1]
		}
	},
	"scene": "defaultScene",
	"scenes": {
		"defaultScene": {
			"nodes": [
				"node_OilPaint_f72ec0e7-a844-4e38-82e3-140c44772699_0_0",
				"node_SceneLight_0_-1038",
				"node_SceneLight_1_-1044"
			],
			"extras": {
				"TB_EnvironmentGuid": "ab080599-e465-4a6d-8587-43bf495af68b",
				"TB_Environment": "Standard",
				"TB_UseGradient": "true",
				"TB_SkyColorA": "0.2745098, 0.2745098, 0.3176471",
				"TB_SkyColorB": "0.03529412, 0.03529412, 0.08627451",
				"TB_SkyGradientDirection": "0, 1, 0",
				"TB_FogColor": "0.1647059, 0.1647059, 0.2078431",
				"TB_FogDensity": "0.0025",
				"TB_SkyColorHorizon": "0.2745098, 0.2745098, 0.3176471",
				"TB_SkyColorZenith": "0.03529412, 0.03529412, 0.08627451"
			}
		}
	}
}