{
	"asset": {
		"generator": "Tilt Brush 15.2.4484bbdd5",
		"version": "1.1",
		"copyright": "Unknown."
	},
	"buffers": {
		"sketch": {
			"byteLength": 8400,
			"type": "arraybuffer",
			"uri": "sketch.bin"
		}
	},
	"accessors": {
		"accessor_position_Hypercolor_e8ef32b1-baa8-460a-9c2c-9cf8506794f5_0_0": {
			"bufferView": "vec3BufferView",
			"byteOffset": 0,
			"byteStride": 12,
			"componentType": 5126,
			"count": 120,
			"max": [ 0.7121487, 0.9968197, 0.2871044 ],
			"min": [ -1.54168, -0.02879925, 0.258412 ],
			"type": "VEC3"
		 },
		"accessor_normal_Hypercolor_e8ef32b1-baa8-460a-9c2c-9cf8506794f5_0_0": {
			"bufferView": "vec3BufferView",
			"byteOffset": 1440,
			"byteStride": 12,
			"componentType": 5126,
			"count": 120,
			"max": [ 0.0004650745, 0.02838669, 0.999597 ],
			"min": [ -0.0004650745, -0.02838669, -0.999597 ],
			"type": "VEC3"
		 },
		"accessor_color_Hypercolor_e8ef32b1-baa8-460a-9c2c-9cf8506794f5_0_0": {
			"bufferView": "vec4BufferView",
			"byteOffset": 0,
			"byteStride": 16,
			"componentType": 5126,
			"count": 120,
			"max": [ 0.5764706, 0.003921569, 0.03137255, 1 ],
			"min": [ 0.5764706, 0.003921569, 0.03137255, 1 ],
			"type": "VEC4"
		 },
		"accessor_tangent_Hypercolor_e8ef32b1-baa8-460a-9c2c-9cf8506794f5_0_0": {
			"bufferView": "vec4BufferView",
			"byteOffset": 1920,
			"byteStride": 16,
			"componentType": 5126,
			"count": 120,
			"max": [ -0.9999323, 0.01163495, 0.0001348205, 1 ],
			"min": [ -0.9999323, 0.01163494, 0.0001347671, -1 ],
			"type": "VEC4"
		 },
		"accessor_uv0_Hypercolor_e8ef32b1-baa8-460a-9c2c-9cf8506794f5_0_0": {
			"bufferView": "vec3BufferView",
			"byteOffset": 2880,
			"byteStride": 12,
			"componentType": 5126,
			"count": 120,
			"max": [ 1, 1, 1 ],
			"min": [ 0, 0, 1 ],
			"type": "VEC3"
		 },
		"accessor_indices_0_Hypercolor_e8ef32b1-baa8-460a-9c2c-9cf8506794f5_0_0": {
			"bufferView": "ushortBufferView",
			"byteOffset": 0,
			"byteStride": 0,
			"componentType": 5123,
			"count": 120,
			"max": [ 119 ],
			"min": [ 0 ],
			"type": "SCALAR"
		 }
	},
	"bufferViews": {
		"ushortBufferView": {
			"buffer": "sketch",
			"byteLength": 240,
			"byteOffset": 0,
			"target": 34963
		},
		"vec3BufferView": {
			"buffer": "sketch",
			"byteLength": 4320,
			"byteOffset": 240,
			"target": 34962
		},
		"vec4BufferView": {
			"buffer": "sketch",
			"byteLength": 3840,
			"byteOffset": 4560,
			"target": 34962
		}
	},
	"meshes": {
		"mesh_Hypercolor_e8ef32b1-baa8-460a-9c2c-9cf8506794f5_0_0": {
			"name": "mesh_Hypercolor_e8ef32b1-baa8-460a-9c2c-9cf8506794f5_0_0",
			"primitives": [
				{
					"attributes": {
						"POSITION": "accessor_position_Hypercolor_e8ef32b1-baa8-460a-9c2c-9cf8506794f5_0_0",
						"NORMAL": "accessor_normal_Hypercolor_e8ef32b1-baa8-460a-9c2c-9cf8506794f5_0_0",
						"COLOR": "accessor_color_Hypercolor_e8ef32b1-baa8-460a-9c2c-9cf8506794f5_0_0",
						"TANGENT": "accessor_tangent_Hypercolor_e8ef32b1-baa8-460a-9c2c-9cf8506794f5_0_0",
						"TEXCOORD_0": "accessor_uv0_Hypercolor_e8ef32b1-baa8-460a-9c2c-9cf8506794f5_0_0"
					},
					"indices": "accessor_indices_0_Hypercolor_e8ef32b1-baa8-460a-9c2c-9cf8506794f5_0_0",
					"material": "material_e8ef32b1-baa8-460a-9c2c-9cf8506794f5",
					"mode": 4
				}
			]
		}
	},
	"shaders": {
		"vertex_e8ef32b1-baa8-460a-9c2c-9cf8506794f5": {
			"type": 35633,
			"uri": "https://www.tiltbrush.com/shaders/brushes/Hypercolor-e8ef32b1-baa8-460a-9c2c-9cf8506794f5/Hypercolor-e8ef32b1-baa8-460a-9c2c-9cf8506794f5-v10.0-vertex.glsl"
		},
		"fragment_e8ef32b1-baa8-460a-9c2c-9cf8506794f5": {
			"type": 35632,
			"uri": "https://www.tiltbrush.com/shaders/brushes/Hypercolor-e8ef32b1-baa8-460a-9c2c-9cf8506794f5/Hypercolor-e8ef32b1-baa8-460a-9c2c-9cf8506794f5-v10.0-fragment.glsl"
		}
	},
	"programs": {
		"program_e8ef32b1-baa8-460a-9c2c-9cf8506794f5": {
			"attributes": [
				"a_position",
				"a_normal",
				"a_color",
				"a_tangent",
				"a_texcoord0"				
			],
			"vertexShader": "vertex_e8ef32b1-baa8-460a-9c2c-9cf8506794f5",
			"fragmentShader": "fragment_e8ef32b1-baa8-460a-9c2c-9cf8506794f5"
		}
	},
	"techniques": {
		"technique_e8ef32b1-baa8-460a-9c2c-9cf8506794f5": {
			"program": "program_e8ef32b1-baa8-460a-9c2c-9cf8506794f5",
			"parameters": {
				"position": {
					"type": 35665,
					"semantic": "POSITION"
				},
				"normal": {
					"type": 35665,
					"semantic": "NORMAL"
				},
				"color": {
					"type": 35666,
					"semantic": "COLOR"
				},
				"tangent": {
					"type": 35666,
					"semantic": "TANGENT"
				},
				"texcoord0": {
					"type": 35665,
					"semantic": "TEXCOORD_0"
				},
				"modelViewMatrix": {
					"type": 35676,
					"semantic": "MODELVIEW"
				},
				"projectionMatrix": {
					"type": 35676,
					"semantic": "PROJECTION"
				},
				"normalMatrix": {
					"type": 35675,
					"semantic": "MODELVIEWINVERSETRANSPOSE"
				},
				"SceneLight_0_matrix": {
					"type": 35676,
					"semantic": "MODELVIEW",
					"node": "node_SceneLight_0_-914"
				},
				"SceneLight_0_color": {
					"type": 35666,
					"node": "node_SceneLight_0_-914"
				},
				"SceneLight_1_matrix": {
					"type": 35676,
					"semantic": "MODELVIEW",
					"node": "node_SceneLight_1_-920"
				},
				"SceneLight_1_color": {
					"type": 35666,
					"node": "node_SceneLight_1_-920"
				},
				"ambient_light_color": {
					"type": 35666
				},
				"Shininess": {
					"type": 5126
				},
				"Cutoff": {
					"type": 5126
				},
				"Color": {
					"type": 35666
				},
				"SpecColor": {
					"type": 35666
				},
				"MainTex_TexelSize": {
					"type": 35666
				},
				"BumpMap_TexelSize": {
					"type": 35666
				},
				"MainTex": {
					"type": 35678
				},
				"BumpMap": {
					"type": 35678
				}				
			},
			"attributes": {
				"a_position": "position",
				"a_normal": "normal",
				"a_color": "color",
				"a_tangent": "tangent",
				"a_texcoord0": "texcoord0"				
			},
			"uniforms": {
				"u_modelViewMatrix": "modelViewMatrix",
				"u_projectionMatrix": "projectionMatrix",
				"u_normalMatrix": "normalMatrix",
				"u_SceneLight_0_matrix": "SceneLight_0_matrix",
				"u_SceneLight_0_color": "SceneLight_0_color",
				"u_SceneLight_1_matrix": "SceneLight_1_matrix",
				"u_SceneLight_1_color": "SceneLight_1_color",
				"u_ambient_light_color": "ambient_light_color",
				"u_Shininess": "Shininess",
				"u_Cutoff": "Cutoff",
				"u_Color": "Color",
				"u_SpecColor": "SpecColor",
				"u_MainTex_TexelSize": "MainTex_TexelSize",
				"u_BumpMap_TexelSize": "BumpMap_TexelSize",
				"u_MainTex": "MainTex",
				"u_BumpMap": "BumpMap"				
			},
			"states": {
				"enable": [
					2929,
					2884
				],
				"functions": {
					"depthMask": [true]
				}
			}
		}
	},
	"samplers": {
		"sampler_LINEAR_LINEAR_REPEAT": {
			"magFilter": 9729,
			"minFilter": 9987,
			"wrapS": 10497,
			"wrapT": 10497
		}
	},
	"textures": {
		"texture_e8ef32b1-baa8-460a-9c2c-9cf8506794f5_MainTex": {
			"format": 6408,
			"internalFormat": 6408,
			"sampler": "sampler_LINEAR_LINEAR_REPEAT",
			"source": "image_e8ef32b1-baa8-460a-9c2c-9cf8506794f5_MainTex",
			"target": 3553,
			"type": 5121
		},
		"texture_e8ef32b1-baa8-460a-9c2c-9cf8506794f5_BumpMap": {
			"format": 6408,
			"internalFormat": 6408,
			"sampler": "sampler_LINEAR_LINEAR_REPEAT",
			"source": "image_e8ef32b1-baa8-460a-9c2c-9cf8506794f5_BumpMap",
			"target": 3553,
			"type": 5121
		}
	},
	"images": {
		"image_e8ef32b1-baa8-460a-9c2c-9cf8506794f5_MainTex": {
			"uri": "https://www.tiltbrush.com/shaders/brushes/Hypercolor-e8ef32b1-baa8-460a-9c2c-9cf8506794f5/Hypercolor-e8ef32b1-baa8-460a-9c2c-9cf8506794f5-v10.0-MainTex.png"
		},
		"image_e8ef32b1-baa8-460a-9c2c-9cf8506794f5_BumpMap": {
			"uri": "https://www.tiltbrush.com/shaders/brushes/Hypercolor-e8ef32b1-baa8-460a-9c2c-9cf8506794f5/Hypercolor-e8ef32b1-baa8-460a-9c2c-9cf8506794f5-v10.0-BumpMap.png"
		}
	},
	"materials": {
		"material_e8ef32b1-baa8-460a-9c2c-9cf8506794f5": {
			"technique": "technique_e8ef32b1-baa8-460a-9c2c-9cf8506794f5",
			"values": {
				"SceneLight_0_color": [0.7780392, 0.8156863, 0.9913726, 1],
				"SceneLight_1_color": [0.4282353, 0.4211765, 0.3458824, 1],
				"ambient_light_color": [0.3921569, 0.3921569, 0.3921569, 1],
				"Shininess": 0.5,
				"Cutoff": 0.5,
				"Color": [1, 1, 1, 1],
				"SpecColor": [0.2745098, 0.2745098, 0.2745098, 1],
				"MainTex_TexelSize": [0.001953125, 0.0078125, 512, 128],
				"BumpMap_TexelSize": [0.001953125, 0.0078125, 512, 128],
				"MainTex": "texture_e8ef32b1-baa8-460a-9c2c-9cf8506794f5_MainTex",
				"BumpMap": "texture_e8ef32b1-baa8-460a-9c2c-9cf8506794f5_BumpMap"				
			},
			"name": "material_e8ef32b1-baa8-460a-9c2c-9cf8506794f5"
		}
	},
	"nodes": {
		"node_Hypercolor_e8ef32b1-baa8-460a-9c2c-9cf8506794f5_0_0": {
			"name": "node_Hypercolor_e8ef32b1-baa8-460a-9c2c-9cf8506794f5_0_0",
			"meshes": [
				"mesh_Hypercolor_e8ef32b1-baa8-460a-9c2c-9cf8506794f5_0_0"
			],
			"matrix": [1, 0, 0, 0, 0, 1, 0, 0, 0, 0, 1, 0, 0, 0, 0, 1]
		},
		"node_SceneLight_0_-914": {
			"name": "node_SceneLight_0_-914",
			"light": "SceneLight_0",
			"matrix": [0.898794, 0.2191856, -0.3796406, 0, -0.4383712, 0.449397, -0.7783785, 0, -1.490116E-08, 0.8660254, 0.4999999, 0, 0, 0.021875, 0.05458749, 1]
		},
		"node_SceneLight_1_-920": {
			"name": "node_SceneLight_1_-920",
			"light": "SceneLight_1",
			"matrix": [0.7660444, -0.4924039, -0.4131759, 0, -0.6427876, -0.5868242, -0.4924039, 0, 8.940697E-08, 0.6427876, -0.7660446, 0, 0, 0.021875, 0.05458749, 1]
		}
	},
	"scene": "defaultScene",
	"scenes": {
		"defaultScene": {
			"nodes": [
				"node_Hypercolor_e8ef32b1-baa8-460a-9c2c-9cf8506794f5_0_0",
				"node_SceneLight_0_-914",
				"node_SceneLight_1_-920"
			],
			"extras": {
				"TB_EnvironmentGuid": "ab080599-e465-4a6d-8587-43bf495af68b",
				"TB_Environment": "Standard",
				"TB_SkyColorA": "0.2745098, 0.2745098, 0.3176471",
				"TB_SkyColorB": "0.03529412, 0.03529412, 0.08627451",
				"TB_SkyGradientDirection": "0, 1, 0",
				"TB_FogColor": "0.1647059, 0.1647059, 0.2078431",
				"TB_FogDensity": "0.0025",
				"TB_SkyColorHorizon": "0.2745098, 0.2745098, 0.3176471",
				"TB_SkyColorZenith": "0.03529412, 0.03529412, 0.08627451"
			}
		}
	}
}