{
	"asset": {
		"generator": "Tilt Brush 15.0b.2779d7d",
		"version": "1.1",
		"copyright": "Unknown."
	},
	"buffers": {
		"tmp6e2b8530": {
			"byteLength": 1591128,
			"type": "arraybuffer",
			"uri": "tmp6e2b8530.bin"
		}
	},
	"accessors": {
		"accessor_position_Marker_429ed64a-4e97-4466-84d3-145a861ef684_0_0": {
			"bufferView": "vec3BufferView",
			"byteOffset": 0,
			"byteStride": 12,
			"componentType": 5126,
			"count": 20172,
			"max": [ 0.4619522, 1.570986, 0.2533056 ],
			"min": [ -0.429671, 0.7329594, 0.1013639 ],
			"type": "VEC3"
		 },
		"accessor_normal_Marker_429ed64a-4e97-4466-84d3-145a861ef684_0_0": {
			"bufferView": "vec3BufferView",
			"byteOffset": 242064,
			"byteStride": 12,
			"componentType": 5126,
			"count": 20172,
			"max": [ 0.9087893, 0.965628, 0.999939 ],
			"min": [ -0.8839354, -0.8743804, -0.9999405 ],
			"type": "VEC3"
		 },
		"accessor_color_Marker_429ed64a-4e97-4466-84d3-145a861ef684_0_0": {
			"bufferView": "vec4BufferView",
			"byteOffset": 0,
			"byteStride": 16,
			"componentType": 5126,
			"count": 20172,
			"max": [ 1, 1, 1, 1 ],
			"min": [ 0, 0, 0, 0 ],
			"type": "VEC4"
		 },
		"accessor_tangent_Marker_429ed64a-4e97-4466-84d3-145a861ef684_0_0": {
			"bufferView": "vec4BufferView",
			"byteOffset": 322752,
			"byteStride": 16,
			"componentType": 5126,
			"count": 20172,
			"max": [ 0.9999346, 0.9999921, 0.8914247, 1 ],
			"min": [ -0.9999297, -0.9999995, -0.9999219, 1 ],
			"type": "VEC4"
		 },
		"accessor_uv0_Marker_429ed64a-4e97-4466-84d3-145a861ef684_0_0": {
			"bufferView": "vec2BufferView",
			"byteOffset": 0,
			"byteStride": 8,
			"componentType": 5126,
			"count": 20172,
			"max": [ 4.856449, 1 ],
			"min": [ 0.001341937, 0 ],
			"type": "VEC2"
		 },
		"accessor_indices_0_Marker_429ed64a-4e97-4466-84d3-145a861ef684_0_0": {
			"bufferView": "ushortBufferView",
			"byteOffset": 0,
			"byteStride": 0,
			"componentType": 5123,
			"count": 20172,
			"max": [ 20171 ],
			"min": [ 0 ],
			"type": "SCALAR"
		 },
		"accessor_position_Light_2241cd32-8ba2-48a5-9ee7-2caef7e9ed62_0_0": {
			"bufferView": "vec3BufferView",
			"byteOffset": 484128,
			"byteStride": 12,
			"componentType": 5126,
			"count": 3936,
			"max": [ 0.1942171, 1.471471, 0.1583302 ],
			"min": [ -0.1586131, 0.8370177, 0.1335083 ],
			"type": "VEC3"
		 },
		"accessor_normal_Light_2241cd32-8ba2-48a5-9ee7-2caef7e9ed62_0_0": {
			"bufferView": "vec3BufferView",
			"byteOffset": 531360,
			"byteStride": 12,
			"componentType": 5126,
			"count": 3936,
			"max": [ 0.07398747, 0.001115577, 0.9999398 ],
			"min": [ -0.07397123, -0.001100956, -0.9999388 ],
			"type": "VEC3"
		 },
		"accessor_color_Light_2241cd32-8ba2-48a5-9ee7-2caef7e9ed62_0_0": {
			"bufferView": "vec4BufferView",
			"byteOffset": 645504,
			"byteStride": 16,
			"componentType": 5126,
			"count": 3936,
			"max": [ 1, 1, 1, 1 ],
			"min": [ 0.7176471, 0.7176471, 0.7176471, 0.5215687 ],
			"type": "VEC4"
		 },
		"accessor_tangent_Light_2241cd32-8ba2-48a5-9ee7-2caef7e9ed62_0_0": {
			"bufferView": "vec4BufferView",
			"byteOffset": 708480,
			"byteStride": 16,
			"componentType": 5126,
			"count": 3936,
			"max": [ 0.9996029, 0.9925865, 0.07395785, 1 ],
			"min": [ -0.9999344, -0.9446811, -0.07381068, 1 ],
			"type": "VEC4"
		 },
		"accessor_uv0_Light_2241cd32-8ba2-48a5-9ee7-2caef7e9ed62_0_0": {
			"bufferView": "vec2BufferView",
			"byteOffset": 161376,
			"byteStride": 8,
			"componentType": 5126,
			"count": 3936,
			"max": [ 1, 1 ],
			"min": [ 0, 0 ],
			"type": "VEC2"
		 },
		"accessor_indices_0_Light_2241cd32-8ba2-48a5-9ee7-2caef7e9ed62_0_0": {
			"bufferView": "ushortBufferView",
			"byteOffset": 40344,
			"byteStride": 0,
			"componentType": 5123,
			"count": 3936,
			"max": [ 3935 ],
			"min": [ 0 ],
			"type": "SCALAR"
		 }
	},
	"bufferViews": {
		"ushortBufferView": {
			"buffer": "tmp6e2b8530",
			"byteLength": 48216,
			"byteOffset": 0,
			"target": 34963
		},
		"vec2BufferView": {
			"buffer": "tmp6e2b8530",
			"byteLength": 192864,
			"byteOffset": 48216,
			"target": 34962
		},
		"vec3BufferView": {
			"buffer": "tmp6e2b8530",
			"byteLength": 578592,
			"byteOffset": 241080,
			"target": 34962
		},
		"vec4BufferView": {
			"buffer": "tmp6e2b8530",
			"byteLength": 771456,
			"byteOffset": 819672,
			"target": 34962
		}
	},
	"meshes": {
		"mesh_Marker_429ed64a-4e97-4466-84d3-145a861ef684_0_0": {
			"name": "mesh_Marker_429ed64a-4e97-4466-84d3-145a861ef684_0_0",
			"primitives": [
				{
					"attributes": {
						"POSITION": "accessor_position_Marker_429ed64a-4e97-4466-84d3-145a861ef684_0_0",
						"NORMAL": "accessor_normal_Marker_429ed64a-4e97-4466-84d3-145a861ef684_0_0",
						"COLOR": "accessor_color_Marker_429ed64a-4e97-4466-84d3-145a861ef684_0_0",
						"TANGENT": "accessor_tangent_Marker_429ed64a-4e97-4466-84d3-145a861ef684_0_0",
						"TEXCOORD_0": "accessor_uv0_Marker_429ed64a-4e97-4466-84d3-145a861ef684_0_0"
					},
					"indices": "accessor_indices_0_Marker_429ed64a-4e97-4466-84d3-145a861ef684_0_0",
					"material": "material_429ed64a-4e97-4466-84d3-145a861ef684",
					"mode": 4
				}
			]
		},
		"mesh_Light_2241cd32-8ba2-48a5-9ee7-2caef7e9ed62_0_0": {
			"name": "mesh_Light_2241cd32-8ba2-48a5-9ee7-2caef7e9ed62_0_0",
			"primitives": [
				{
					"attributes": {
						"POSITION": "accessor_position_Light_2241cd32-8ba2-48a5-9ee7-2caef7e9ed62_0_0",
						"NORMAL": "accessor_normal_Light_2241cd32-8ba2-48a5-9ee7-2caef7e9ed62_0_0",
						"COLOR": "accessor_color_Light_2241cd32-8ba2-48a5-9ee7-2caef7e9ed62_0_0",
						"TANGENT": "accessor_tangent_Light_2241cd32-8ba2-48a5-9ee7-2caef7e9ed62_0_0",
						"TEXCOORD_0": "accessor_uv0_Light_2241cd32-8ba2-48a5-9ee7-2caef7e9ed62_0_0"
					},
					"indices": "accessor_indices_0_Light_2241cd32-8ba2-48a5-9ee7-2caef7e9ed62_0_0",
					"material": "material_2241cd32-8ba2-48a5-9ee7-2caef7e9ed62",
					"mode": 4
				}
			]
		}
	},
	"shaders": {
		"vertex_429ed64a-4e97-4466-84d3-145a861ef684": {
			"type": 35633,
			"uri": "https://www.tiltbrush.com/shaders/brushes/Marker-429ed64a-4e97-4466-84d3-145a861ef684/Marker-429ed64a-4e97-4466-84d3-145a861ef684-v10.0-vertex.glsl"
		},
		"fragment_429ed64a-4e97-4466-84d3-145a861ef684": {
			"type": 35632,
			"uri": "https://www.tiltbrush.com/shaders/brushes/Marker-429ed64a-4e97-4466-84d3-145a861ef684/Marker-429ed64a-4e97-4466-84d3-145a861ef684-v10.0-fragment.glsl"
		},
		"vertex_2241cd32-8ba2-48a5-9ee7-2caef7e9ed62": {
			"type": 35633,
			"uri": "https://www.tiltbrush.com/shaders/brushes/Light-2241cd32-8ba2-48a5-9ee7-2caef7e9ed62/Light-2241cd32-8ba2-48a5-9ee7-2caef7e9ed62-v10.0-vertex.glsl"
		},
		"fragment_2241cd32-8ba2-48a5-9ee7-2caef7e9ed62": {
			"type": 35632,
			"uri": "https://www.tiltbrush.com/shaders/brushes/Light-2241cd32-8ba2-48a5-9ee7-2caef7e9ed62/Light-2241cd32-8ba2-48a5-9ee7-2caef7e9ed62-v10.0-fragment.glsl"
		}
	},
	"programs": {
		"program_429ed64a-4e97-4466-84d3-145a861ef684": {
			"attributes": [
				"a_position",
				"a_normal",
				"a_color",
				"a_tangent",
				"a_texcoord0"				
			],
			"vertexShader": "vertex_429ed64a-4e97-4466-84d3-145a861ef684",
			"fragmentShader": "fragment_429ed64a-4e97-4466-84d3-145a861ef684"
		},
		"program_2241cd32-8ba2-48a5-9ee7-2caef7e9ed62": {
			"attributes": [
				"a_position",
				"a_normal",
				"a_color",
				"a_tangent",
				"a_texcoord0"				
			],
			"vertexShader": "vertex_2241cd32-8ba2-48a5-9ee7-2caef7e9ed62",
			"fragmentShader": "fragment_2241cd32-8ba2-48a5-9ee7-2caef7e9ed62"
		}
	},
	"techniques": {
		"technique_429ed64a-4e97-4466-84d3-145a861ef684": {
			"program": "program_429ed64a-4e97-4466-84d3-145a861ef684",
			"parameters": {
				"position": {
					"type": 35665,
					"semantic": "POSITION"
				},
				"normal": {
					"type": 35665,
					"semantic": "NORMAL"
				},
				"color": {
					"type": 35666,
					"semantic": "COLOR"
				},
				"tangent": {
					"type": 35666,
					"semantic": "TANGENT"
				},
				"texcoord0": {
					"type": 35664,
					"semantic": "TEXCOORD_0"
				},
				"modelViewMatrix": {
					"type": 35676,
					"semantic": "MODELVIEW"
				},
				"projectionMatrix": {
					"type": 35676,
					"semantic": "PROJECTION"
				},
				"normalMatrix": {
					"type": 35675,
					"semantic": "MODELVIEWINVERSETRANSPOSE"
				},
				"SceneLight_0_matrix": {
					"type": 35676,
					"semantic": "MODELVIEW",
					"node": "node_SceneLight_0_-914"
				},
				"SceneLight_0_color": {
					"type": 35666,
					"node": "node_SceneLight_0_-914"
				},
				"SceneLight_1_matrix": {
					"type": 35676,
					"semantic": "MODELVIEW",
					"node": "node_SceneLight_1_-920"
				},
				"SceneLight_1_color": {
					"type": 35666,
					"node": "node_SceneLight_1_-920"
				},
				"ambient_light_color": {
					"type": 35666
				},
				"Cutoff": {
					"type": 5126
				},
				"MainTex_TexelSize": {
					"type": 35666
				},
				"MainTex": {
					"type": 35678
				}				
			},
			"attributes": {
				"a_position": "position",
				"a_normal": "normal",
				"a_color": "color",
				"a_tangent": "tangent",
				"a_texcoord0": "texcoord0"				
			},
			"uniforms": {
				"u_modelViewMatrix": "modelViewMatrix",
				"u_projectionMatrix": "projectionMatrix",
				"u_normalMatrix": "normalMatrix",
				"u_SceneLight_0_matrix": "SceneLight_0_matrix",
				"u_SceneLight_0_color": "SceneLight_0_color",
				"u_SceneLight_1_matrix": "SceneLight_1_matrix",
				"u_SceneLight_1_color": "SceneLight_1_color",
				"u_ambient_light_color": "ambient_light_color",
				"u_Cutoff": "Cutoff",
				"u_MainTex_TexelSize": "MainTex_TexelSize",
				"u_MainTex": "MainTex"				
			},
			"states": {
				"enable": [
					2929
				],
				"functions": {
					"depthMask": [true]
				}
			}
		},
		"technique_2241cd32-8ba2-48a5-9ee7-2caef7e9ed62": {
			"program": "program_2241cd32-8ba2-48a5-9ee7-2caef7e9ed62",
			"parameters": {
				"position": {
					"type": 35665,
					"semantic": "POSITION"
				},
				"normal": {
					"type": 35665,
					"semantic": "NORMAL"
				},
				"color": {
					"type": 35666,
					"semantic": "COLOR"
				},
				"tangent": {
					"type": 35666,
					"semantic": "TANGENT"
				},
				"texcoord0": {
					"type": 35664,
					"semantic": "TEXCOORD_0"
				},
				"modelViewMatrix": {
					"type": 35676,
					"semantic": "MODELVIEW"
				},
				"projectionMatrix": {
					"type": 35676,
					"semantic": "PROJECTION"
				},
				"normalMatrix": {
					"type": 35675,
					"semantic": "MODELVIEWINVERSETRANSPOSE"
				},
				"SceneLight_0_matrix": {
					"type": 35676,
					"semantic": "MODELVIEW",
					"node": "node_SceneLight_0_-914"
				},
				"SceneLight_0_color": {
					"type": 35666,
					"node": "node_SceneLight_0_-914"
				},
				"SceneLight_1_matrix": {
					"type": 35676,
					"semantic": "MODELVIEW",
					"node": "node_SceneLight_1_-920"
				},
				"SceneLight_1_color": {
					"type": 35666,
					"node": "node_SceneLight_1_-920"
				},
				"ambient_light_color": {
					"type": 35666
				},
				"EmissionGain": {
					"type": 5126
				},
				"MainTex_TexelSize": {
					"type": 35666
				},
				"MainTex": {
					"type": 35678
				}				
			},
			"attributes": {
				"a_position": "position",
				"a_normal": "normal",
				"a_color": "color",
				"a_tangent": "tangent",
				"a_texcoord0": "texcoord0"				
			},
			"uniforms": {
				"u_modelViewMatrix": "modelViewMatrix",
				"u_projectionMatrix": "projectionMatrix",
				"u_normalMatrix": "normalMatrix",
				"u_SceneLight_0_matrix": "SceneLight_0_matrix",
				"u_SceneLight_0_color": "SceneLight_0_color",
				"u_SceneLight_1_matrix": "SceneLight_1_matrix",
				"u_SceneLight_1_color": "SceneLight_1_color",
				"u_ambient_light_color": "ambient_light_color",
				"u_EmissionGain": "EmissionGain",
				"u_MainTex_TexelSize": "MainTex_TexelSize",
				"u_MainTex": "MainTex"				
			},
			"states": {
				"enable": [
					2929,
					3042
				],
				"functions": {
					"blendFuncSeparate": [1, 1, 1, 1],
					"depthMask": [false]
				}
			}
		}
	},
	"samplers": {
		"sampler_LINEAR_LINEAR_REPEAT": {
			"magFilter": 9729,
			"minFilter": 9987,
			"wrapS": 10497,
			"wrapT": 10497
		}
	},
	"textures": {
		"texture_429ed64a-4e97-4466-84d3-145a861ef684_MainTex": {
			"format": 6408,
			"internalFormat": 6408,
			"sampler": "sampler_LINEAR_LINEAR_REPEAT",
			"source": "image_429ed64a-4e97-4466-84d3-145a861ef684_MainTex",
			"target": 3553,
			"type": 5121
		},
		"texture_2241cd32-8ba2-48a5-9ee7-2caef7e9ed62_MainTex": {
			"format": 6408,
			"internalFormat": 6408,
			"sampler": "sampler_LINEAR_LINEAR_REPEAT",
			"source": "image_2241cd32-8ba2-48a5-9ee7-2caef7e9ed62_MainTex",
			"target": 3553,
			"type": 5121
		}
	},
	"images": {
		"image_429ed64a-4e97-4466-84d3-145a861ef684_MainTex": {
			"uri": "https://www.tiltbrush.com/shaders/brushes/Marker-429ed64a-4e97-4466-84d3-145a861ef684/Marker-429ed64a-4e97-4466-84d3-145a861ef684-v10.0-MainTex.png"
		},
		"image_2241cd32-8ba2-48a5-9ee7-2caef7e9ed62_MainTex": {
			"uri": "https://www.tiltbrush.com/shaders/brushes/Light-2241cd32-8ba2-48a5-9ee7-2caef7e9ed62/Light-2241cd32-8ba2-48a5-9ee7-2caef7e9ed62-v10.0-MainTex.png"
		}
	},
	"materials": {
		"material_429ed64a-4e97-4466-84d3-145a861ef684": {
			"technique": "technique_429ed64a-4e97-4466-84d3-145a861ef684",
			"values": {
				"SceneLight_0_color": [0.7780392, 0.8156863, 0.9913726, 1],
				"SceneLight_1_color": [0.4282353, 0.4211765, 0.3458824, 1],
				"ambient_light_color": [0.3921569, 0.3921569, 0.3921569, 1],
				"Cutoff": 0.067,
				"MainTex_TexelSize": [0.015625, 0.00390625, 64, 256],
				"MainTex": "texture_429ed64a-4e97-4466-84d3-145a861ef684_MainTex"				
			},
			"name": "material_429ed64a-4e97-4466-84d3-145a861ef684"
		},
		"material_2241cd32-8ba2-48a5-9ee7-2caef7e9ed62": {
			"technique": "technique_2241cd32-8ba2-48a5-9ee7-2caef7e9ed62",
			"values": {
				"SceneLight_0_color": [0.7780392, 0.8156863, 0.9913726, 1],
				"SceneLight_1_color": [0.4282353, 0.4211765, 0.3458824, 1],
				"ambient_light_color": [0.3921569, 0.3921569, 0.3921569, 1],
				"EmissionGain": 0.45,
				"MainTex_TexelSize": [0.001953125, 0.00390625, 512, 256],
				"MainTex": "texture_2241cd32-8ba2-48a5-9ee7-2caef7e9ed62_MainTex"				
			},
			"name": "material_2241cd32-8ba2-48a5-9ee7-2caef7e9ed62"
		}
	},
	"nodes": {
		"node_Marker_429ed64a-4e97-4466-84d3-145a861ef684_0_0": {
			"name": "node_Marker_429ed64a-4e97-4466-84d3-145a861ef684_0_0",
			"meshes": [
				"mesh_Marker_429ed64a-4e97-4466-84d3-145a861ef684_0_0"
			],
			"matrix": [1, 0, 0, 0, 0, 1, 0, 0, 0, 0, 1, 0, 0, 0, 0, 1]
		},
		"node_SceneLight_0_-914": {
			"name": "node_SceneLight_0_-914",
			"light": "SceneLight_0",
			"matrix": [0.898794, 0.2191856, -0.3796406, 0, -0.4383712, 0.449397, -0.7783785, 0, -1.490116E-08, 0.8660254, 0.4999999, 0, -0.02795707, 0.07166789, 0.02063698, 1]
		},
		"node_SceneLight_1_-920": {
			"name": "node_SceneLight_1_-920",
			"light": "SceneLight_1",
			"matrix": [0.7660444, -0.4924039, -0.4131759, 0, -0.6427876, -0.5868242, -0.4924039, 0, 8.940697E-08, 0.6427876, -0.7660446, 0, 0.03641621, 0.0636562, -0.04437117, 1]
		},
		"node_Light_2241cd32-8ba2-48a5-9ee7-2caef7e9ed62_0_0": {
			"name": "node_Light_2241cd32-8ba2-48a5-9ee7-2caef7e9ed62_0_0",
			"meshes": [
				"mesh_Light_2241cd32-8ba2-48a5-9ee7-2caef7e9ed62_0_0"
			],
			"matrix": [1, 0, 0, 0, 0, 1, 0, 0, 0, 0, 1, 0, 0, 0, 0, 1]
		}
	},
	"scene": "defaultScene",
	"scenes": {
		"defaultScene": {
			"nodes": [
				"node_Marker_429ed64a-4e97-4466-84d3-145a861ef684_0_0",
				"node_SceneLight_0_-914",
				"node_SceneLight_1_-920",
				"node_Light_2241cd32-8ba2-48a5-9ee7-2caef7e9ed62_0_0"
			],
			"extras": {
				"TB_EnvironmentGuid": "580b4529-ac50-4fe9-b8d2-635765a14893",
				"TB_Environment": "Black",
				"TB_SkyColorA": "0, 0, 0",
				"TB_SkyColorB": "0, 0, 0",
				"TB_SkyGradientDirection": "0, 1, 0",
				"TB_FogColor": "0.01960784, 0.01960784, 0.01960784",
				"TB_FogDensity": "0",
				"TB_SkyColorHorizon": "0, 0, 0",
				"TB_SkyColorZenith": "0, 0, 0"
			}
		}
	}
}